<svg xmlns="http://www.w3.org/2000/svg" width="91.54" height="62.789" viewBox="0 0 91.54 62.789">
  <g id="Group_656" data-name="Group 656" transform="translate(0 0)">
    <path id="Path_1022" data-name="Path 1022" d="M108.261,152.12l-5.8-11.367V109a1.009,1.009,0,0,0-.057-.23c0-.019-.019-.038-.019-.057a1.208,1.208,0,0,0-.153-.44c0-.019-.019-.019-.019-.038a1.683,1.683,0,0,0-.115-.191l-.019-.019a.516.516,0,0,0-.134-.153l-.038-.038c-.057-.057-.115-.1-.172-.153-.019,0-.019-.019-.038-.019l-.172-.115-.019-.019a1.026,1.026,0,0,0-.211-.1h-.019l-41.03-15.52a1.69,1.69,0,0,0-1.225,0L18.01,107.4A1.719,1.719,0,0,0,16.9,109a1.736,1.736,0,0,0,1.129,1.608L30.7,115.4v23.577a1.737,1.737,0,0,0,1.053,1.588l10.679,4.421a45.012,45.012,0,0,0,34.447,0l10.717-4.421a1.761,1.761,0,0,0,1.11-1.588V115.4l10.334-3.9v29.241L93.142,152.12a1.716,1.716,0,0,0,.038,1.665,1.646,1.646,0,0,0,1.454.8h12.056a1.8,1.8,0,0,0,1.493-.8A1.717,1.717,0,0,0,108.261,152.12ZM34.143,137.844V116.7l23.73,8.956v19.29a41.336,41.336,0,0,1-14.123-3.119Zm51.1,0-9.645,3.981a41.76,41.76,0,0,1-14.276,3.138V125.692L85.239,116.7ZM59.652,122.649,23.5,109,59.633,95.379,95.764,109Zm37.8,28.514,3.215-6.258,3.215,6.258Z" transform="translate(-16.9 -91.8)"/>
  </g>
</svg>
