<svg id="Group_644" data-name="Group 644" xmlns="http://www.w3.org/2000/svg" width="97.05" height="51.019" viewBox="0 0 97.05 51.019">
  <path id="Path_963" data-name="Path 963" d="M181.549,167.78l21.59,5.784a14.815,14.815,0,0,0,2.582.453c2.818.239,10.109.861,14.829,1.265a14.879,14.879,0,0,0,8.964-2.1c3.384-2.054,8.307-5.04,11.229-6.813a4.528,4.528,0,0,0,1.572-6.137l-.149-.256a4.528,4.528,0,0,0-6.2-1.65l-12.581,7.308-4.833-1.3a5.128,5.128,0,0,0,.848-1.747v0a5.138,5.138,0,0,0-3.633-6.292l-8.78-2.352c-3.639-3.021-7.136-5.289-10.414-6.344a11.037,11.037,0,0,0-9.708.954s-2.992-.8-4.723-1.268v-2.827a1.618,1.618,0,0,0-1.618-1.617h-9.912A1.618,1.618,0,0,0,169,144.459v22.066a1.618,1.618,0,0,0,1.617,1.617h9.912A1.611,1.611,0,0,0,181.549,167.78Zm22.723-7.269,9.673,2.591a1.909,1.909,0,0,0,2.336-1.349v0a1.9,1.9,0,0,0-1.346-2.329l-9.123-2.446a1.6,1.6,0,0,1-.621-.32c-3.371-2.827-6.574-5-9.6-5.972a7.911,7.911,0,0,0-7.476.935,1.616,1.616,0,0,1-1.365.249l-4.594-1.229.042,13.969,21.781,5.833a11.517,11.517,0,0,0,2.019.356l14.829,1.262a11.612,11.612,0,0,0,7.01-1.64l11.229-6.813a1.294,1.294,0,0,0,.45-1.753l-.149-.256a1.3,1.3,0,0,0-1.77-.472l-13.16,7.648a1.609,1.609,0,0,1-1.233.162l-19.769-5.3a1.618,1.618,0,1,1,.838-3.125Zm-25.359-14.435v18.831h-6.677V146.076Z" transform="translate(-169 -124.316)" fill="#0b9444" fill-rule="evenodd"/>
  <path id="Path_964" data-name="Path 964" d="M236.925,165.163v2.827a1.618,1.618,0,0,0,1.618,1.617h9.912a1.618,1.618,0,0,0,1.617-1.617V145.925a1.618,1.618,0,0,0-1.617-1.618h-9.912a1.611,1.611,0,0,0-1.019.362l-21.59-5.784a14.82,14.82,0,0,0-2.582-.453c-2.818-.239-10.109-.861-14.829-1.265a14.878,14.878,0,0,0-8.964,2.1c-3.384,2.054-8.308,5.04-11.229,6.813a4.528,4.528,0,0,0-1.572,6.137l.149.256a4.529,4.529,0,0,0,6.2,1.65l12.581-7.308,4.833,1.3a5.128,5.128,0,0,0-.848,1.747v0a5.138,5.138,0,0,0,3.633,6.292l8.78,2.352c3.639,3.021,7.136,5.289,10.414,6.344a11.037,11.037,0,0,0,9.708-.954S235.194,164.7,236.925,165.163Zm3.235,1.21V147.542h6.677v18.831ZM214.8,151.939l-9.673-2.591a1.909,1.909,0,0,0-2.336,1.349v0a1.9,1.9,0,0,0,1.346,2.329l9.123,2.446a1.6,1.6,0,0,1,.621.32c3.371,2.827,6.574,5,9.6,5.972a7.911,7.911,0,0,0,7.476-.935,1.616,1.616,0,0,1,1.365-.249l4.594,1.229-.042-13.969L215.1,142.011a11.517,11.517,0,0,0-2.019-.356l-14.829-1.262a11.612,11.612,0,0,0-7.01,1.64l-11.229,6.813a1.294,1.294,0,0,0-.45,1.753l.149.256a1.3,1.3,0,0,0,1.77.472l13.16-7.648a1.609,1.609,0,0,1,1.233-.162l19.769,5.3a1.618,1.618,0,1,1-.838,3.125Z" transform="translate(-153.022 -137.115)" fill="#0b9444" fill-rule="evenodd"/>
</svg>
